<svg width="80" height="80" fill="none" xmlns="http://www.w3.org/2000/svg"><g clip-path="url(#clip0_1003_56)" fill="#F12347"><path d="M40 73.333c-18.333 0-33.333-15-33.333-33.333 0-18.334 15-33.334 33.333-33.334s33.333 15 33.333 33.334c0 18.333-15 33.333-33.333 33.333zM40 10c-16.667 0-30 13.333-30 30 0 16.666 13.333 30 30 30s30-13.334 30-30c0-16.667-13.333-30-30-30z"/><path d="M40 16.667c-1 0-1.667-.667-1.667-1.667V1.667C38.333.667 39 0 40 0s1.667.667 1.667 1.667V15c0 1-.667 1.667-1.667 1.667z"/><path d="M40 16.667c-1 0-1.667-.667-1.667-1.667V1.667C38.333.667 39 0 40 0s1.667.667 1.667 1.667V15c0 1-.667 1.667-1.667 1.667zm38.333 25H65c-1 0-1.667-.667-1.667-1.667S64 38.334 65 38.334h13.333c1 0 1.667.666 1.667 1.666 0 1-.667 1.667-1.667 1.667zM40 80c-1 0-1.667-.666-1.667-1.666V65c0-1 .667-1.666 1.667-1.666S41.667 64 41.667 65v13.334C41.667 79.334 41 80 40 80zM15 41.667H1.667C.667 41.667 0 41 0 40s.667-1.666 1.667-1.666H15c1 0 1.667.666 1.667 1.666 0 1-.667 1.667-1.667 1.667zM40 50c-5.667 0-10-4.333-10-10s4.333-10 10-10 10 4.333 10 10-4.333 10-10 10zm0-16.667c-3.667 0-6.667 3-6.667 6.667s3 6.667 6.667 6.667 6.667-3 6.667-6.667-3-6.667-6.667-6.667z"/></g><defs><clipPath id="clip0_1003_56"><path fill="#fff" d="M0 0h80v80H0z"/></clipPath></defs></svg>