<svg width="822" height="120" fill="none" xmlns="http://www.w3.org/2000/svg"><path d="M38.17 116.5H.502V3.65H38.17V116.5zm19.383-82.35V3.65h133.285L57.553 34.15zm133.285-30.5v30.653h-47.58V116.5h-37.515V34.303h-48.19V3.65h133.285zM247.84 116.5h-37.668V3.65L247.84 116.5zm106.445 0H316.77h37.515zM316.77 72.733V3.65h37.515V116.5H316.77l-68.93-69.083V116.5h-37.668V3.65h37.668l68.93 69.082zm199.061-24.706c.102 1.627.152 3.965.152 7.015 0 24.4-7.32 41.226-21.96 50.478-14.64 9.15-32.279 13.725-52.917 13.725-19.927 0-35.736-3.101-47.428-9.303-11.691-6.303-17.537-16.266-17.537-29.89h34.007c0 5.389 2.949 9.303 8.845 11.743 5.999 2.338 13.319 3.355 21.96 3.05 9.659.102 18.148-1.983 25.468-6.252 7.32-4.27 11.692-11.082 13.115-20.436-6.608 3.864-14.386 6.355-23.333 7.473-8.946 1.017-18.757 1.525-29.432 1.525-10.675 0-20.028-1.373-28.06-4.118-8.032-2.846-14.335-6.913-18.91-12.2-4.473-5.388-6.71-11.793-6.71-19.215v-.304c0-9.15 2.999-16.775 8.997-22.875 6.1-6.1 14.234-10.574 24.4-13.42C416.757 2.074 428.296.6 441.106.6c22.773 0 40.362 3.812 52.765 11.438 12.403 7.523 19.723 19.52 21.96 35.99zm-70.913 10.675c22.367 0 33.398-4.371 33.093-13.114h.152c0-6.1-2.338-10.574-7.015-13.42-4.575-2.949-9.302-4.728-14.182-5.338-4.778-.61-10.116-.966-16.013-1.067-9.048-.102-16.724 1.118-23.027 3.66-6.303 2.44-9.455 6.455-9.455 12.047 0 6.812 3.05 11.387 9.15 13.725 6.202 2.338 15.301 3.508 27.297 3.508zM572.48 116.5h-37.668V3.65L572.48 116.5zm106.445 0H641.41h37.515zM641.41 72.733V3.65h37.515V116.5H641.41l-68.93-69.083V116.5h-37.668V3.65h37.668l68.93 69.082zm167.494-.153h-70.455v17.233l83.265-.61V116.5H700.781V3.65h120.933l.152 27.298h-83.417v14.944h70.455V72.58z" fill="#fff"/></svg>