<svg width="101" height="30" fill="none" xmlns="http://www.w3.org/2000/svg"><path d="M1.124 0h24.27c.335 0 .607.103.814.31.206.207.31.478.31.814v24.147c0 .336-.104.608-.31.814-.207.207-.479.31-.815.31h-7.52c-.337 0-.608.104-.815.31-.207.207-.31.479-.31.814v1.357c0 .336-.103.607-.31.814-.207.207-.478.31-.814.31h-4.381c-.336 0-.607-.103-.814-.31-.207-.207-.31-.478-.31-.814v-1.357c0-.335-.104-.607-.31-.814-.207-.206-.479-.31-.815-.31h-7.87c-.336 0-.607-.103-.814-.31-.207-.206-.31-.478-.31-.814V1.124C0 .788.103.517.31.31.517.103.788 0 1.124 0zM6.63 18.643c0 .336.104.608.31.814.207.207.479.31.815.31h1.24c.336 0 .608-.103.814-.31.207-.206.31-.478.31-.814v-.077c0-.336.104-.607.31-.814.207-.207.479-.31.815-.31h4.38c.337 0 .608.103.815.31.207.207.31.478.31.814v.077c0 .336.103.608.31.814.207.207.478.31.814.31h.814c.336 0 .608-.103.814-.31.207-.206.31-.478.31-.814V7.752c0-.336-.103-.607-.31-.814-.206-.207-.478-.31-.814-.31H7.754c-.336 0-.608.103-.814.31-.207.207-.31.478-.31.814v10.891zM31.31 1.124c0-.336.104-.607.31-.814.207-.207.478-.31.814-.31h19.811c.336 0 .607.103.814.31.207.207.31.478.31.814v6.55c0 .336.104.608.31.814.207.207.479.31.815.31h2.132c.336 0 .607.104.814.31.207.207.31.479.31.814v15.35c0 .335-.103.607-.31.813-.207.207-.478.31-.814.31l-24.153.04c-.336 0-.607-.104-.814-.311-.207-.207-.31-.478-.31-.814V6.59l-.039-5.466zm6.63 15.426v2.132c0 .336.103.607.31.814.206.207.478.31.814.31h10.971c.336 0 .608-.103.814-.31.207-.207.31-.478.31-.814V16.55c0-.335-.103-.607-.31-.814-.206-.206-.478-.31-.814-.31H39.064c-.336 0-.608.104-.814.31-.207.207-.31.479-.31.814zm.852-7.752h7.095c.336 0 .556-.09.66-.27.128-.208.193-.492.193-.854 0-.336-.065-.594-.194-.775-.103-.206-.323-.31-.659-.31h-7.095c-.336 0-.568.104-.697.31-.104.181-.155.44-.155.775 0 .362.051.646.155.853.129.181.361.271.697.271zm23.752 1.124c0-.335.104-.607.31-.813.207-.207.479-.31.815-.31h4.38c.336 0 .608.103.815.31.206.206.31.478.31.813l.077 15.388c0 .336-.103.607-.31.814-.207.207-.478.31-.814.31H63.67c-.336 0-.608-.103-.814-.31-.207-.207-.31-.478-.31-.814V9.922zm0-4.418v-4.38c0-.336.104-.607.31-.814.207-.207.479-.31.815-.31h4.38c.75 0 1.125.375 1.125 1.124l.077 4.38c0 .336-.103.607-.31.814-.207.207-.478.31-.814.31H63.67c-.336 0-.608-.103-.814-.31-.207-.207-.31-.478-.31-.814zM75.178 0h24.27c.335 0 .607.103.813.31.207.207.31.478.31.814v24.147c0 .336-.103.608-.31.814-.206.207-.478.31-.814.31h-7.52c-.337 0-.608.104-.815.31-.207.207-.31.479-.31.814v1.357c0 .336-.104.607-.31.814-.207.207-.479.31-.815.31h-4.38c-.336 0-.608-.103-.814-.31-.207-.207-.31-.478-.31-.814v-1.357c0-.335-.104-.607-.31-.814-.207-.206-.479-.31-.815-.31h-7.87c-.336 0-.607-.103-.814-.31-.207-.206-.31-.478-.31-.814V1.124c0-.336.103-.607.31-.814.207-.207.478-.31.814-.31zm5.505 18.643c0 .336.104.608.31.814.207.207.479.31.815.31h1.24c.336 0 .608-.103.814-.31.207-.206.31-.478.31-.814v-.077c0-.336.104-.607.31-.814.207-.207.479-.31.815-.31h4.38c.336 0 .608.103.815.31.206.207.31.478.31.814v.077c0 .336.103.608.31.814.207.207.478.31.814.31h.814c.336 0 .608-.103.814-.31.207-.206.31-.478.31-.814V7.752c0-.336-.103-.607-.31-.814-.206-.207-.478-.31-.814-.31H81.808c-.337 0-.608.103-.815.31-.206.207-.31.478-.31.814v10.891z" fill="#fff" fill-opacity=".2"/></svg>