<svg width="80" height="80" fill="none" xmlns="http://www.w3.org/2000/svg"><g clip-path="url(#clip0_1003_38)" fill="#F12347"><path d="M35 80c-.92 0-1.667-.746-1.667-1.666V65a1.667 1.667 0 013.334 0v13.334c0 .92-.747 1.666-1.667 1.666zm10 0c-.92 0-1.667-.746-1.667-1.666V65a1.667 1.667 0 013.334 0v13.334c0 .92-.747 1.666-1.667 1.666z"/><path d="M75 66.667H5c-2.757 0-5-2.243-5-5V18.333c0-2.756 2.243-5 5-5h16.667a1.667 1.667 0 010 3.334H5a1.67 1.67 0 00-1.667 1.666v43.334c0 .92.75 1.666 1.667 1.666h70a1.67 1.67 0 001.667-1.666V18.333c0-.92-.75-1.666-1.667-1.666H58.333a1.667 1.667 0 010-3.334H75c2.757 0 5 2.244 5 5v43.334c0 2.757-2.243 5-5 5zM55 80H25a1.667 1.667 0 010-3.334h30A1.667 1.667 0 0155 80z"/><path d="M55 43.334H25c-.92 0-1.667-.747-1.667-1.667v-3.903a8.28 8.28 0 012.44-5.894L30 27.644V18.17a18.42 18.42 0 013.803-11.18L38.68.654c.63-.82 2.013-.82 2.643 0l4.877 6.34A18.421 18.421 0 0150 18.17v9.474l4.227 4.226a8.28 8.28 0 012.44 5.894v3.903c0 .92-.747 1.667-1.667 1.667zM26.667 40h26.666v-2.236c0-1.337-.52-2.59-1.463-3.537l-4.713-4.713a1.668 1.668 0 01-.49-1.18V18.17c0-3.293-1.104-6.54-3.114-9.146L40 4.4l-3.553 4.62a15.065 15.065 0 00-3.114 9.15v10.164c0 .443-.176.866-.486 1.18l-4.714 4.713a4.959 4.959 0 00-1.466 3.537V40z"/><path d="M48.333 50c-.92 0-1.666-.747-1.666-1.667v-6.666a1.667 1.667 0 013.333 0v6.666c0 .92-.747 1.667-1.667 1.667zm-16.666 0c-.92 0-1.667-.747-1.667-1.667v-6.666a1.667 1.667 0 013.333 0v6.666c0 .92-.746 1.667-1.666 1.667z"/></g><defs><clipPath id="clip0_1003_38"><path fill="#fff" d="M0 0h80v80H0z"/></clipPath></defs></svg>