<svg width="80" height="80" fill="none" xmlns="http://www.w3.org/2000/svg"><g clip-path="url(#clip0_1003_24)" fill="#F12347"><path d="M40 80C20.7 80 5 64.3 5 45s15.7-35 35-35 35 15.7 35 35-15.7 35-35 35zm0-66.667C22.54 13.333 8.333 27.54 8.333 45S22.54 76.667 40 76.667 71.667 62.46 71.667 45 57.46 13.333 40 13.333z"/><path d="M40 46.667c-.92 0-1.667-.747-1.667-1.667V25a1.667 1.667 0 013.334 0v20c0 .92-.747 1.667-1.667 1.667zM51.667 3.333H28.333a1.667 1.667 0 010-3.333h23.334a1.667 1.667 0 010 3.333z"/><path d="M40 13.333c-.92 0-1.667-.746-1.667-1.666v-10a1.667 1.667 0 013.334 0v10c0 .92-.747 1.666-1.667 1.666zM63.567 23.1c-.427 0-.854-.164-1.18-.487a1.668 1.668 0 010-2.357l8.1-8.1a1.667 1.667 0 012.356 2.357l-8.1 8.1a1.66 1.66 0 01-1.176.487z"/></g><defs><clipPath id="clip0_1003_24"><path fill="#fff" d="M0 0h80v80H0z"/></clipPath></defs></svg>