<svg width="80" height="80" fill="none" xmlns="http://www.w3.org/2000/svg"><g clip-path="url(#clip0_1003_74)" fill="#F12347"><path d="M8.333 70c-.92 0-1.666-.746-1.666-1.666v-40c0-2.757 2.243-5 5-5H15a1.667 1.667 0 010 3.333h-3.333c-.92 0-1.667.746-1.667 1.666v40C10 69.254 9.253 70 8.333 70zm63.334 0c-.92 0-1.667-.746-1.667-1.666v-40c0-.92-.747-1.667-1.667-1.667H65A1.665 1.665 0 0163.333 25c0-.92.744-1.666 1.667-1.666h3.333c2.757 0 5 2.243 5 5v40c0 .92-.746 1.666-1.666 1.666z"/><path d="M78.333 70H1.667a1.667 1.667 0 010-3.334h76.666a1.667 1.667 0 010 3.334zM40 36.667c-4.593 0-8.333-3.74-8.333-8.334C31.667 23.74 35.407 20 40 20s8.333 3.74 8.333 8.333c0 4.594-3.74 8.334-8.333 8.334zm0-13.334c-2.757 0-5 2.244-5 5 0 2.757 2.243 5 5 5s5-2.243 5-5c0-2.756-2.243-5-5-5z"/><path d="M42.657 50H37.34a3.322 3.322 0 01-3.317-3.004L33.6 42.76a15.657 15.657 0 01-2.883-1.677l-3.894 1.757a3.316 3.316 0 01-4.256-1.373l-2.66-4.6a3.326 3.326 0 01.94-4.374l3.43-2.467a13.994 13.994 0 01-.11-1.693c0-.6.046-1.176.113-1.69l-3.43-2.466a3.327 3.327 0 01-.943-4.377l2.66-4.6a3.324 3.324 0 014.256-1.373l3.894 1.756a15.651 15.651 0 012.883-1.677l.427-4.24a3.32 3.32 0 013.316-3h5.317c1.72 0 3.147 1.29 3.317 3.004l.423 4.236a15.619 15.619 0 012.883 1.677l3.894-1.757a3.325 3.325 0 014.256 1.374l2.657 4.603c.86 1.49.453 3.37-.94 4.373l-3.43 2.467c.067.514.113 1.09.113 1.69 0 .6-.046 1.177-.113 1.69l3.43 2.467a3.326 3.326 0 01.94 4.373l-2.657 4.604a3.326 3.326 0 01-4.256 1.373l-3.894-1.757A15.657 15.657 0 0146.4 42.76L45.973 47a3.32 3.32 0 01-3.316 3zM30.95 37.483c.383 0 .763.134 1.07.39 1.13.947 2.38 1.67 3.71 2.157.6.22 1.023.763 1.087 1.4l.526 5.236h5.317l.523-5.236a1.668 1.668 0 011.087-1.4 12.484 12.484 0 003.71-2.157c.493-.41 1.177-.5 1.753-.24l4.814 2.173 2.656-4.603-4.26-3.06a1.677 1.677 0 01-.67-1.643c.127-.71.227-1.424.227-2.167 0-.743-.1-1.456-.223-2.16-.11-.63.15-1.266.67-1.643l4.26-3.06-2.66-4.604-4.814 2.17a1.677 1.677 0 01-1.756-.24 12.292 12.292 0 00-3.71-2.156 1.668 1.668 0 01-1.087-1.4L42.657 10H37.34l-.523 5.236a1.668 1.668 0 01-1.087 1.4 12.424 12.424 0 00-3.71 2.16c-.49.41-1.173.504-1.753.24l-4.814-2.173-2.66 4.604 4.26 3.06c.52.376.78 1.016.67 1.646-.123.704-.223 1.417-.223 2.16 0 .744.1 1.457.223 2.16.11.63-.15 1.267-.67 1.643l-4.26 3.064 2.657 4.603 4.813-2.17c.224-.103.454-.15.687-.15z"/></g><defs><clipPath id="clip0_1003_74"><path fill="#fff" d="M0 0h80v80H0z"/></clipPath></defs></svg>