<svg width="80" height="80" fill="none" xmlns="http://www.w3.org/2000/svg"><g clip-path="url(#clip0_1003_49)" fill="#F12347"><path d="M40 80C17.943 80 0 62.057 0 40S17.943 0 40 0s40 17.943 40 40-17.943 40-40 40zm0-76.667C19.783 3.333 3.333 19.783 3.333 40c0 20.217 16.45 36.667 36.667 36.667 20.217 0 36.667-16.45 36.667-36.667 0-20.217-16.45-36.667-36.667-36.667z"/><path d="M40.017 80C27.867 80 18.35 62.43 18.35 40S27.867 0 40.017 0c12.15 0 21.666 17.57 21.666 40s-9.52 40-21.666 40zm0-76.667C30.08 3.333 21.683 20.127 21.683 40s8.397 36.667 18.334 36.667c9.936 0 18.333-16.794 18.333-36.667S49.953 3.333 40.017 3.333z"/><path d="M40.017 61.667c-22.43 0-40-9.517-40-21.667 0-12.15 17.57-21.666 40-21.666s40 9.516 40 21.666-17.574 21.667-40 21.667zm0-40C20.14 21.667 3.35 30.063 3.35 40c0 9.937 16.79 18.334 36.667 18.334 19.876 0 36.666-8.397 36.666-18.334 0-9.936-16.79-18.333-36.666-18.333z"/></g><defs><clipPath id="clip0_1003_49"><path fill="#fff" d="M0 0h80v80H0z"/></clipPath></defs></svg>