<svg width="80" height="80" viewBox="0 0 80 80" fill="none" xmlns="http://www.w3.org/2000/svg">
<g clip-path="url(#clip0_1003_56)">
<path d="M40 73.3332C21.6666 73.3332 6.66663 58.3332 6.66663 39.9998C6.66663 21.6665 21.6666 6.6665 40 6.6665C58.3333 6.6665 73.3333 21.6665 73.3333 39.9998C73.3333 58.3332 58.3333 73.3332 40 73.3332ZM40 9.99984C23.3333 9.99984 9.99996 23.3332 9.99996 39.9998C9.99996 56.6665 23.3333 69.9998 40 69.9998C56.6666 69.9998 70 56.6665 70 39.9998C70 23.3332 56.6666 9.99984 40 9.99984Z" fill="#F12347"/>
<path d="M40 16.6667C39 16.6667 38.3334 16 38.3334 15V1.66667C38.3334 0.666667 39 0 40 0C41 0 41.6667 0.666667 41.6667 1.66667V15C41.6667 16 41 16.6667 40 16.6667Z" fill="#F12347"/>
<path d="M40 16.6667C39 16.6667 38.3334 16 38.3334 15V1.66667C38.3334 0.666667 39 0 40 0C41 0 41.6667 0.666667 41.6667 1.66667V15C41.6667 16 41 16.6667 40 16.6667Z" fill="#F12347"/>
<path d="M78.3334 41.6668H65C64 41.6668 63.3334 41.0002 63.3334 40.0002C63.3334 39.0002 64 38.3335 65 38.3335H78.3334C79.3334 38.3335 80 39.0002 80 40.0002C80 41.0002 79.3334 41.6668 78.3334 41.6668Z" fill="#F12347"/>
<path d="M40 80.0002C39 80.0002 38.3334 79.3335 38.3334 78.3335V65.0002C38.3334 64.0002 39 63.3335 40 63.3335C41 63.3335 41.6667 64.0002 41.6667 65.0002V78.3335C41.6667 79.3335 41 80.0002 40 80.0002Z" fill="#F12347"/>
<path d="M15 41.6668H1.66667C0.666667 41.6668 0 41.0002 0 40.0002C0 39.0002 0.666667 38.3335 1.66667 38.3335H15C16 38.3335 16.6667 39.0002 16.6667 40.0002C16.6667 41.0002 16 41.6668 15 41.6668Z" fill="#F12347"/>
<path d="M40 50C34.3333 50 30 45.6667 30 40C30 34.3333 34.3333 30 40 30C45.6667 30 50 34.3333 50 40C50 45.6667 45.6667 50 40 50ZM40 33.3333C36.3333 33.3333 33.3333 36.3333 33.3333 40C33.3333 43.6667 36.3333 46.6667 40 46.6667C43.6667 46.6667 46.6667 43.6667 46.6667 40C46.6667 36.3333 43.6667 33.3333 40 33.3333Z" fill="#F12347"/>
</g>
<defs>
<clipPath id="clip0_1003_56">
<rect width="80" height="80" fill="white"/>
</clipPath>
</defs>
</svg>
