<svg width="101" height="30" viewBox="0 0 101 30" fill="none" xmlns="http://www.w3.org/2000/svg">
<path d="M1.12429 0H25.3933C25.7293 0 26.0007 0.10336 26.2075 0.310079C26.4142 0.516798 26.5176 0.788114 26.5176 1.12403V25.2713C26.5176 25.6072 26.4142 25.8786 26.2075 26.0853C26.0007 26.292 25.7293 26.3953 25.3933 26.3953H17.8723C17.5363 26.3953 17.2649 26.4987 17.0581 26.7054C16.8514 26.9121 16.748 27.1835 16.748 27.5194V28.876C16.748 29.2119 16.6446 29.4832 16.4378 29.6899C16.2311 29.8966 15.9597 30 15.6237 30H11.2429C10.9069 30 10.6355 29.8966 10.4287 29.6899C10.2219 29.4832 10.1186 29.2119 10.1186 28.876V27.5194C10.1186 27.1835 10.0152 26.9121 9.80842 26.7054C9.60166 26.4987 9.33027 26.3953 8.99428 26.3953H1.12429C0.788292 26.3953 0.516913 26.292 0.310148 26.0853C0.103383 25.8786 0 25.6072 0 25.2713V1.12403C0 0.788114 0.103383 0.516798 0.310148 0.310079C0.516913 0.10336 0.788292 0 1.12429 0ZM6.62941 18.6434C6.62941 18.9793 6.73279 19.2506 6.93955 19.4574C7.14632 19.6641 7.4177 19.7674 7.75369 19.7674H8.99428C9.33027 19.7674 9.60166 19.6641 9.80842 19.4574C10.0152 19.2506 10.1186 18.9793 10.1186 18.6434V18.5659C10.1186 18.23 10.2219 17.9587 10.4287 17.7519C10.6355 17.5452 10.9069 17.4419 11.2429 17.4419H15.6237C15.9597 17.4419 16.2311 17.5452 16.4378 17.7519C16.6446 17.9587 16.748 18.23 16.748 18.5659V18.6434C16.748 18.9793 16.8514 19.2506 17.0581 19.4574C17.2649 19.6641 17.5363 19.7674 17.8723 19.7674H18.6864C19.0224 19.7674 19.2938 19.6641 19.5005 19.4574C19.7073 19.2506 19.8107 18.9793 19.8107 18.6434V7.75194C19.8107 7.41602 19.7073 7.1447 19.5005 6.93799C19.2938 6.73127 19.0224 6.62791 18.6864 6.62791H7.75369C7.4177 6.62791 7.14632 6.73127 6.93955 6.93799C6.73279 7.1447 6.62941 7.41602 6.62941 7.75194V18.6434Z" fill="white" fill-opacity="0.2"/>
<path d="M31.3101 1.12403C31.3101 0.788114 31.4135 0.516798 31.6202 0.310079C31.827 0.10336 32.0984 0 32.4344 0H52.245C52.581 0 52.8524 0.10336 53.0592 0.310079C53.2659 0.516798 53.3693 0.788114 53.3693 1.12403V7.67442C53.3693 8.01034 53.4727 8.28165 53.6795 8.48837C53.8862 8.69509 54.1576 8.79845 54.4936 8.79845H56.6259C56.9619 8.79845 57.2332 8.90181 57.44 9.10853C57.6468 9.31525 57.7502 9.58656 57.7502 9.92248V25.2713C57.7502 25.6072 57.6468 25.8786 57.44 26.0853C57.2332 26.292 56.9619 26.3953 56.6259 26.3953L32.4731 26.4341C32.1371 26.4341 31.8658 26.3307 31.659 26.124C31.4522 25.9173 31.3488 25.646 31.3488 25.3101V6.58915L31.3101 1.12403ZM37.9395 16.5504V18.6822C37.9395 19.0181 38.0429 19.2894 38.2496 19.4961C38.4564 19.7028 38.7278 19.8062 39.0638 19.8062H50.0352C50.3712 19.8062 50.6426 19.7028 50.8494 19.4961C51.0561 19.2894 51.1595 19.0181 51.1595 18.6822V16.5504C51.1595 16.2145 51.0561 15.9432 50.8494 15.7364C50.6426 15.5297 50.3712 15.4264 50.0352 15.4264H39.0638C38.7278 15.4264 38.4564 15.5297 38.2496 15.7364C38.0429 15.9432 37.9395 16.2145 37.9395 16.5504ZM38.7924 8.79845H45.887C46.223 8.79845 46.4427 8.70801 46.5461 8.52713C46.6753 8.32041 46.7399 8.03618 46.7399 7.67442C46.7399 7.3385 46.6753 7.0801 46.5461 6.89923C46.4427 6.69251 46.223 6.58915 45.887 6.58915H38.7924C38.4564 6.58915 38.2238 6.69251 38.0946 6.89923C37.9912 7.0801 37.9395 7.3385 37.9395 7.67442C37.9395 8.03618 37.9912 8.32041 38.0946 8.52713C38.2238 8.70801 38.4564 8.79845 38.7924 8.79845Z" fill="white" fill-opacity="0.2"/>
<path d="M62.5444 9.92248C62.5444 9.58656 62.6478 9.31525 62.8546 9.10853C63.0613 8.90181 63.3327 8.79845 63.6687 8.79845H68.0495C68.3855 8.79845 68.6569 8.90181 68.8637 9.10853C69.0704 9.31525 69.1738 9.58656 69.1738 9.92248L69.2514 25.3101C69.2514 25.646 69.148 25.9173 68.9412 26.124C68.7345 26.3307 68.4631 26.4341 68.1271 26.4341H63.6687C63.3327 26.4341 63.0613 26.3307 62.8546 26.124C62.6478 25.9173 62.5444 25.646 62.5444 25.3101V9.92248ZM62.5444 5.50388V1.12403C62.5444 0.788114 62.6478 0.516798 62.8546 0.310079C63.0613 0.10336 63.3327 0 63.6687 0H68.0495C68.7991 0 69.1738 0.374677 69.1738 1.12403L69.2514 5.50388C69.2514 5.8398 69.148 6.11111 68.9412 6.31783C68.7345 6.52455 68.4631 6.62791 68.1271 6.62791H63.6687C63.3327 6.62791 63.0613 6.52455 62.8546 6.31783C62.6478 6.11111 62.5444 5.8398 62.5444 5.50388Z" fill="white" fill-opacity="0.2"/>
<path d="M75.1781 0H99.4471C99.7831 0 100.055 0.10336 100.261 0.310079C100.468 0.516798 100.571 0.788114 100.571 1.12403V25.2713C100.571 25.6072 100.468 25.8786 100.261 26.0853C100.055 26.292 99.7831 26.3953 99.4471 26.3953H91.9261C91.5901 26.3953 91.3187 26.4987 91.1119 26.7054C90.9052 26.9121 90.8018 27.1835 90.8018 27.5194V28.876C90.8018 29.2119 90.6984 29.4832 90.4916 29.6899C90.2849 29.8966 90.0135 30 89.6775 30H85.2967C84.9607 30 84.6893 29.8966 84.4825 29.6899C84.2758 29.4832 84.1724 29.2119 84.1724 28.876V27.5194C84.1724 27.1835 84.069 26.9121 83.8622 26.7054C83.6555 26.4987 83.3841 26.3953 83.0481 26.3953H75.1781C74.8421 26.3953 74.5707 26.292 74.364 26.0853C74.1572 25.8786 74.0538 25.6072 74.0538 25.2713V1.12403C74.0538 0.788114 74.1572 0.516798 74.364 0.310079C74.5707 0.10336 74.8421 0 75.1781 0ZM80.6832 18.6434C80.6832 18.9793 80.7866 19.2506 80.9934 19.4574C81.2001 19.6641 81.4715 19.7674 81.8075 19.7674H83.0481C83.3841 19.7674 83.6555 19.6641 83.8622 19.4574C84.069 19.2506 84.1724 18.9793 84.1724 18.6434V18.5659C84.1724 18.23 84.2758 17.9587 84.4825 17.7519C84.6893 17.5452 84.9607 17.4419 85.2967 17.4419H89.6775C90.0135 17.4419 90.2849 17.5452 90.4916 17.7519C90.6984 17.9587 90.8018 18.23 90.8018 18.5659V18.6434C90.8018 18.9793 90.9052 19.2506 91.1119 19.4574C91.3187 19.6641 91.5901 19.7674 91.9261 19.7674H92.7402C93.0762 19.7674 93.3476 19.6641 93.5543 19.4574C93.7611 19.2506 93.8645 18.9793 93.8645 18.6434V7.75194C93.8645 7.41602 93.7611 7.1447 93.5543 6.93799C93.3476 6.73127 93.0762 6.62791 92.7402 6.62791H81.8075C81.4715 6.62791 81.2001 6.73127 80.9934 6.93799C80.7866 7.1447 80.6832 7.41602 80.6832 7.75194V18.6434Z" fill="white" fill-opacity="0.2"/>
</svg>
