<svg width="80" height="80" viewBox="0 0 80 80" fill="none" xmlns="http://www.w3.org/2000/svg">
<g clip-path="url(#clip0_1003_38)">
<path d="M34.9999 80.0002C34.0799 80.0002 33.3333 79.2535 33.3333 78.3335V65.0002C33.3333 64.0802 34.0799 63.3335 34.9999 63.3335C35.9199 63.3335 36.6666 64.0802 36.6666 65.0002V78.3335C36.6666 79.2535 35.9199 80.0002 34.9999 80.0002Z" fill="#F12347"/>
<path d="M44.9999 80.0002C44.0799 80.0002 43.3333 79.2535 43.3333 78.3335V65.0002C43.3333 64.0802 44.0799 63.3335 44.9999 63.3335C45.9199 63.3335 46.6666 64.0802 46.6666 65.0002V78.3335C46.6666 79.2535 45.9199 80.0002 44.9999 80.0002Z" fill="#F12347"/>
<path d="M75 66.6668H5C2.24333 66.6668 0 64.4235 0 61.6668V18.3335C0 15.5768 2.24333 13.3335 5 13.3335H21.6667C22.5867 13.3335 23.3333 14.0802 23.3333 15.0002C23.3333 15.9202 22.5867 16.6668 21.6667 16.6668H5C4.08333 16.6668 3.33333 17.4135 3.33333 18.3335V61.6668C3.33333 62.5868 4.08333 63.3335 5 63.3335H75C75.9167 63.3335 76.6667 62.5868 76.6667 61.6668V18.3335C76.6667 17.4135 75.9167 16.6668 75 16.6668H58.3333C57.4133 16.6668 56.6667 15.9202 56.6667 15.0002C56.6667 14.0802 57.4133 13.3335 58.3333 13.3335H75C77.7567 13.3335 80 15.5768 80 18.3335V61.6668C80 64.4235 77.7567 66.6668 75 66.6668Z" fill="#F12347"/>
<path d="M54.9999 79.9998H24.9999C24.0799 79.9998 23.3333 79.2532 23.3333 78.3332C23.3333 77.4132 24.0799 76.6665 24.9999 76.6665H54.9999C55.9199 76.6665 56.6666 77.4132 56.6666 78.3332C56.6666 79.2532 55.9199 79.9998 54.9999 79.9998Z" fill="#F12347"/>
<path d="M54.9999 43.3336H24.9999C24.0799 43.3336 23.3333 42.5869 23.3333 41.6669V37.7636C23.3333 35.5369 24.1999 33.4436 25.7733 31.8702L29.9999 27.6436V18.1702C29.9999 14.1469 31.3499 10.1769 33.8033 6.99024L38.6799 0.653574C39.3099 -0.166426 40.6933 -0.166426 41.3233 0.653574L46.1999 6.99358C48.6499 10.1769 49.9999 14.1469 49.9999 18.1702V27.6436L54.2266 31.8702C55.7999 33.4436 56.6666 35.5369 56.6666 37.7636V41.6669C56.6666 42.5869 55.9199 43.3336 54.9999 43.3336ZM26.6666 40.0002H53.3333V37.7636C53.3333 36.4269 52.8133 35.1736 51.8699 34.2269L47.1566 29.5136C46.8433 29.2002 46.6666 28.7769 46.6666 28.3336V18.1702C46.6666 14.8769 45.5633 11.6302 43.5533 9.02357L39.9999 4.40024L36.4466 9.02024C34.4366 11.6302 33.3333 14.8769 33.3333 18.1702V28.3336C33.3333 28.7769 33.1566 29.2002 32.8466 29.5136L28.1333 34.2269C27.1866 35.1702 26.6666 36.4269 26.6666 37.7636V40.0002Z" fill="#F12347"/>
<path d="M48.3334 50C47.4134 50 46.6667 49.2533 46.6667 48.3333V41.6667C46.6667 40.7467 47.4134 40 48.3334 40C49.2534 40 50.0001 40.7467 50.0001 41.6667V48.3333C50.0001 49.2533 49.2534 50 48.3334 50Z" fill="#F12347"/>
<path d="M31.6667 50C30.7467 50 30 49.2533 30 48.3333V41.6667C30 40.7467 30.7467 40 31.6667 40C32.5867 40 33.3333 40.7467 33.3333 41.6667V48.3333C33.3333 49.2533 32.5867 50 31.6667 50Z" fill="#F12347"/>
</g>
<defs>
<clipPath id="clip0_1003_38">
<rect width="80" height="80" fill="white"/>
</clipPath>
</defs>
</svg>
