<svg width="80" height="80" viewBox="0 0 80 80" fill="none" xmlns="http://www.w3.org/2000/svg">
<g clip-path="url(#clip0_1003_24)">
<path d="M40 80C20.7 80 5 64.3 5 45C5 25.7 20.7 10 40 10C59.3 10 75 25.7 75 45C75 64.3 59.3 80 40 80ZM40 13.3333C22.54 13.3333 8.33333 27.54 8.33333 45C8.33333 62.46 22.54 76.6667 40 76.6667C57.46 76.6667 71.6667 62.46 71.6667 45C71.6667 27.54 57.46 13.3333 40 13.3333Z" fill="#F12347"/>
<path d="M39.9999 46.6668C39.0799 46.6668 38.3333 45.9202 38.3333 45.0002V25.0002C38.3333 24.0802 39.0799 23.3335 39.9999 23.3335C40.9199 23.3335 41.6666 24.0802 41.6666 25.0002V45.0002C41.6666 45.9202 40.9199 46.6668 39.9999 46.6668Z" fill="#F12347"/>
<path d="M51.6667 3.33333H28.3334C27.4134 3.33333 26.6667 2.58667 26.6667 1.66667C26.6667 0.746667 27.4134 0 28.3334 0H51.6667C52.5868 0 53.3334 0.746667 53.3334 1.66667C53.3334 2.58667 52.5868 3.33333 51.6667 3.33333Z" fill="#F12347"/>
<path d="M39.9999 13.3333C39.0799 13.3333 38.3333 12.5867 38.3333 11.6667V1.66667C38.3333 0.746667 39.0799 0 39.9999 0C40.9199 0 41.6666 0.746667 41.6666 1.66667V11.6667C41.6666 12.5867 40.9199 13.3333 39.9999 13.3333Z" fill="#F12347"/>
<path d="M63.5667 23.0998C63.14 23.0998 62.7133 22.9364 62.3867 22.6131C61.7367 21.9631 61.7367 20.9064 62.3867 20.2564L70.4867 12.1564C71.1367 11.5064 72.1933 11.5064 72.8433 12.1564C73.4933 12.8064 73.4933 13.8631 72.8433 14.5131L64.7433 22.6131C64.42 22.9364 63.9933 23.0998 63.5667 23.0998Z" fill="#F12347"/>
</g>
<defs>
<clipPath id="clip0_1003_24">
<rect width="80" height="80" fill="white"/>
</clipPath>
</defs>
</svg>
