<svg width="80" height="80" viewBox="0 0 80 80" fill="none" xmlns="http://www.w3.org/2000/svg">
<g clip-path="url(#clip0_1003_74)">
<path d="M8.33329 70.0002C7.41329 70.0002 6.66663 69.2535 6.66663 68.3335V28.3335C6.66663 25.5768 8.90996 23.3335 11.6666 23.3335H15C15.92 23.3335 16.6666 24.0802 16.6666 25.0002C16.6666 25.9202 15.92 26.6668 15 26.6668H11.6666C10.7466 26.6668 9.99996 27.4135 9.99996 28.3335V68.3335C9.99996 69.2535 9.25329 70.0002 8.33329 70.0002Z" fill="#F12347"/>
<path d="M71.6667 70.0002C70.7467 70.0002 70 69.2535 70 68.3335V28.3335C70 27.4135 69.2534 26.6668 68.3334 26.6668H65C64.0767 26.6668 63.3334 25.9202 63.3334 25.0002C63.3334 24.0802 64.0767 23.3335 65 23.3335H68.3334C71.09 23.3335 73.3334 25.5768 73.3334 28.3335V68.3335C73.3334 69.2535 72.5867 70.0002 71.6667 70.0002Z" fill="#F12347"/>
<path d="M78.3333 69.9998H1.66667C0.746667 69.9998 0 69.2532 0 68.3332C0 67.4132 0.746667 66.6665 1.66667 66.6665H78.3333C79.2533 66.6665 80 67.4132 80 68.3332C80 69.2532 79.2533 69.9998 78.3333 69.9998Z" fill="#F12347"/>
<path d="M40.0001 36.6667C35.4067 36.6667 31.6667 32.9267 31.6667 28.3333C31.6667 23.74 35.4067 20 40.0001 20C44.5934 20 48.3334 23.74 48.3334 28.3333C48.3334 32.9267 44.5934 36.6667 40.0001 36.6667ZM40.0001 23.3333C37.2434 23.3333 35.0001 25.5767 35.0001 28.3333C35.0001 31.09 37.2434 33.3333 40.0001 33.3333C42.7567 33.3333 45.0001 31.09 45.0001 28.3333C45.0001 25.5767 42.7567 23.3333 40.0001 23.3333Z" fill="#F12347"/>
<path d="M42.6567 49.9998H37.34C35.62 49.9998 34.1934 48.7098 34.0234 46.9965L33.6 42.7598C32.59 42.3098 31.6267 41.7498 30.7167 41.0832L26.8234 42.8398C25.2567 43.5498 23.4267 42.9598 22.5667 41.4665L19.9067 36.8665C19.0467 35.3765 19.4534 33.4965 20.8467 32.4932L24.2767 30.0265C24.2134 29.5098 24.1667 28.9332 24.1667 28.3332C24.1667 27.7332 24.2134 27.1565 24.28 26.6432L20.85 24.1765C19.4534 23.1732 19.0467 21.2932 19.9067 19.7998L22.5667 15.1998C23.4267 13.7132 25.25 13.1198 26.8234 13.8265L30.7167 15.5832C31.6267 14.9165 32.59 14.3565 33.6 13.9065L34.0267 9.6665C34.1967 7.9565 35.6234 6.6665 37.3434 6.6665H42.66C44.38 6.6665 45.8067 7.9565 45.9767 9.66984L46.4 13.9065C47.4134 14.3565 48.3767 14.9198 49.2834 15.5832L53.1767 13.8265C54.7434 13.1232 56.5767 13.7098 57.4334 15.1998L60.09 19.8032C60.95 21.2932 60.5434 23.1732 59.15 24.1765L55.72 26.6432C55.7867 27.1565 55.8334 27.7332 55.8334 28.3332C55.8334 28.9332 55.7867 29.5098 55.72 30.0232L59.15 32.4898C60.5434 33.4932 60.95 35.3732 60.09 36.8632L57.4334 41.4665C56.5734 42.9532 54.7434 43.5465 53.1767 42.8398L49.2834 41.0832C48.3734 41.7498 47.41 42.3098 46.4 42.7598L45.9734 46.9998C45.8034 48.7098 44.3767 49.9998 42.6567 49.9998ZM30.95 37.4832C31.3334 37.4832 31.7134 37.6165 32.02 37.8732C33.15 38.8198 34.4 39.5432 35.73 40.0298C36.33 40.2498 36.7534 40.7932 36.8167 41.4298L37.3434 46.6665H42.66L43.1834 41.4298C43.2467 40.7932 43.67 40.2498 44.27 40.0298C45.6 39.5432 46.85 38.8165 47.98 37.8732C48.4734 37.4632 49.1567 37.3732 49.7334 37.6332L54.5467 39.8065L57.2034 35.2032L52.9434 32.1432C52.4234 31.7698 52.1667 31.1298 52.2734 30.4998C52.4 29.7898 52.5 29.0765 52.5 28.3332C52.5 27.5898 52.4 26.8765 52.2767 26.1732C52.1667 25.5432 52.4267 24.9065 52.9467 24.5298L57.2067 21.4698L54.5467 16.8665L49.7334 19.0365C49.1534 19.2998 48.4667 19.2032 47.9767 18.7965C46.85 17.8498 45.6034 17.1265 44.2667 16.6398C43.6667 16.4198 43.2434 15.8765 43.18 15.2398L42.6567 9.99984H37.34L36.8167 15.2365C36.7534 15.8732 36.33 16.4165 35.73 16.6365C34.4 17.1232 33.15 17.8498 32.02 18.7965C31.53 19.2065 30.8467 19.2998 30.2667 19.0365L25.4534 16.8632L22.7934 21.4665L27.0534 24.5265C27.5734 24.9032 27.8334 25.5432 27.7234 26.1732C27.6 26.8765 27.5 27.5898 27.5 28.3332C27.5 29.0765 27.6 29.7898 27.7234 30.4932C27.8334 31.1232 27.5734 31.7598 27.0534 32.1365L22.7934 35.1998L25.45 39.8032L30.2634 37.6332C30.4867 37.5298 30.7167 37.4832 30.95 37.4832Z" fill="#F12347"/>
</g>
<defs>
<clipPath id="clip0_1003_74">
<rect width="80" height="80" fill="white"/>
</clipPath>
</defs>
</svg>
