<svg width="80" height="80" viewBox="0 0 80 80" fill="none" xmlns="http://www.w3.org/2000/svg">
<g clip-path="url(#clip0_1003_49)">
<path d="M40 80C17.9433 80 0 62.0567 0 40C0 17.9433 17.9433 0 40 0C62.0567 0 80 17.9433 80 40C80 62.0567 62.0567 80 40 80ZM40 3.33333C19.7833 3.33333 3.33333 19.7833 3.33333 40C3.33333 60.2167 19.7833 76.6667 40 76.6667C60.2167 76.6667 76.6667 60.2167 76.6667 40C76.6667 19.7833 60.2167 3.33333 40 3.33333Z" fill="#F12347"/>
<path d="M40.0166 80C27.8666 80 18.35 62.43 18.35 40C18.35 17.57 27.8666 0 40.0166 0C52.1666 0 61.6833 17.57 61.6833 40C61.6833 62.43 52.1633 80 40.0166 80ZM40.0166 3.33333C30.08 3.33333 21.6833 20.1267 21.6833 40C21.6833 59.8733 30.08 76.6667 40.0166 76.6667C49.9533 76.6667 58.35 59.8733 58.35 40C58.35 20.1267 49.9533 3.33333 40.0166 3.33333Z" fill="#F12347"/>
<path d="M40.0167 61.6668C17.5867 61.6668 0.0167236 52.1502 0.0167236 40.0002C0.0167236 27.8502 17.5867 18.3335 40.0167 18.3335C62.4467 18.3335 80.0167 27.8502 80.0167 40.0002C80.0167 52.1502 62.4434 61.6668 40.0167 61.6668ZM40.0167 21.6668C20.1401 21.6668 3.35006 30.0635 3.35006 40.0002C3.35006 49.9368 20.1401 58.3335 40.0167 58.3335C59.8934 58.3335 76.6834 49.9368 76.6834 40.0002C76.6834 30.0635 59.8934 21.6668 40.0167 21.6668Z" fill="#F12347"/>
</g>
<defs>
<clipPath id="clip0_1003_49">
<rect width="80" height="80" fill="white"/>
</clipPath>
</defs>
</svg>
